<svg height="512" viewBox="0 0 512 512" width="512" xmlns="http://www.w3.org/2000/svg"><g id="Flat"><path d="m288 272c0-32 80-40 80-96v-16h-88v112z" fill="#f57a08"/><path d="m440 464v32h-368v-32c0-128.07007 80.49-154.47 124.32007-171.67993l.02-.01c1.37988-.54 2.72-1.07007 4.01977-1.6001 7.66016-3.1001 13.94019-5.98 18.1001-9.23 3.54006-2.76997 5.54006-5.81005 5.54006-9.47997 0-32-56-32-56-88v-80c4.51-42.37012 24.1499-80 96-80 77.12012 0 87.60986 45.92993 88 80v40l3.03-3.03a16.97 16.97 0 0 1 28.97 12v3.54a16.96876 16.96876 0 0 1 -10.66992 15.76l-26.55 10.62012c-15.27008 50.33988-58.78008 56.12988-58.78008 89.10988a14.096 14.096 0 0 0 4.33008 10.2v.01c4.06982 4.18994 10.77978 7.43994 19.1499 10.68018.86011.32983 1.74.66992 2.62988 1 43.4502 16.2397 125.89014 34.59982 125.89014 170.10982z" fill="#f5a971"/><path d="m314.10986 293.89014-10.10986 90.10986-47.87988 71.66992-48.12012-71.66992-11.67993-91.67993.02-.01c1.37988-.54 2.72-1.07007 4.01977-1.6001 7.66016-3.1001 13.94019-5.98 18.1001-9.23l37.54006 22.52003 36.33008-21.79c4.06982 4.18994 10.77978 7.43994 19.1499 10.68018.86011.32982 1.74002.66988 2.62988.99996z" fill="#e7f2da"/><path d="m272 320-8 16h-16l-8-16 16-16z" fill="#e34e03"/><path d="m280 432-24 32-24-32 14.67-88 1.33-8h16l1.33 8z" fill="#e34e03"/><path d="m440 464v32h-368v-32c0-98.1001 47.23-136.55 89.03-156.91016 14.49-7.0498 28.32983-11.93994 39.32983-16.37988a161.5535 161.5535 0 0 0 11.82007 50.87988l43.8201 106.41016 43.82007-106.41016a161.631 161.631 0 0 0 11.65993-48.6997c10.97 4.25 24.80005 8.48974 39.29 14.78979 41.85012 18.19019 89.23 53.59007 89.23 156.32007z" fill="#537ec2"/><path d="m148 392v104h-8v-104a4 4 0 0 1 8 0z" fill="#435e99"/><path d="m372 392v104h-8v-104a4 4 0 0 1 8 0z" fill="#435e99"/><circle cx="280" cy="152" fill="#0a4b69" r="8"/><circle cx="200" cy="152" fill="#0a4b69" r="8"/><path d="m182.81524 129.17384 5.664-5.673a8 8 0 0 1 8.18877-1.938l18.37171 6.11738a4.26906 4.26906 0 0 1 1.67487 1.03661 4.2692 4.2692 0 0 1 -3.02359 7.28317h-28.045a4 4 0 0 1 -2.83076-6.82616z" fill="#f57a08"/><path d="m297.18476 129.17384-5.664-5.673a8 8 0 0 0 -8.18877-1.938l-18.37171 6.11738a4.26906 4.26906 0 0 0 -1.67487 1.03661 4.2692 4.2692 0 0 0 3.02364 7.28317h28.045a4 4 0 0 0 2.83071-6.82616z" fill="#f57a08"/><path d="m240 188h-4a16 16 0 0 1 0-32h4a4 4 0 0 1 0 8h-4a8 8 0 0 0 0 16h4a4 4 0 0 1 0 8z" fill="#e37066"/><path d="m259.5918 231.18945a16.6085 16.6085 0 0 1 -5.25977-.8623l-7.59668-2.53223a4.00009 4.00009 0 0 1 2.5293-7.58984l7.59765 2.53222a8.46148 8.46148 0 0 0 8.14551-14.48339 8.46009 8.46009 0 0 0 -6.86133-1.89063l-33.48925 5.582a3.99968 3.99968 0 1 1 -1.31446-7.89062l33.48926-5.582a16.46827 16.46827 0 1 1 2.75977 32.71679z" fill="#e37066"/><path d="m256 304-24 24-35.67993-35.67993.02-.01c1.37988-.54 2.72-1.07007 4.01977-1.6001 7.66016-3.1001 13.94019-5.98 18.1001-9.23z" fill="#b1cdb4"/><path d="m314.10986 293.89014-34.10986 34.10986-24-24 36.33008-21.79c4.06982 4.18994 10.77978 7.43994 19.1499 10.68018.86011.32982 1.74002.66988 2.62988.99996z" fill="#b1cdb4"/><path d="m264 24c-47.02692 0-71.68714 16.11933-84.3782 39.13716 3.38626-1.782 7.51185-1.57034 12.3782.86284 16 8 0 32 40 32s44.63579-22.8786 72-32c24-8 24 16 24 40v40c0 14.66962 20.17478 15.88938 23.5298 3.65929a16.11762 16.11762 0 0 1 4.0302-7.21929 15.15911 15.15911 0 0 1 10.71911-4.44h1.72089c0-96-40-112-88-112z" fill="#f57a08"/><path d="m260 456v40h-8v-40a4 4 0 0 1 8 0z" fill="#435e99"/><path d="m336 352h-24l16 24-72 88-72-88 16-24h-24l-14.97-44.91016c14.49-7.0498 28.32983-11.93994 39.32983-16.37988a161.5535 161.5535 0 0 0 11.82007 50.87988l43.8201 106.41016 43.82007-106.41016a161.631 161.631 0 0 0 11.65993-48.6997c10.97 4.25 24.80005 8.48974 39.29 14.78979z" fill="#435e99"/><path d="m265.33 344h-18.66l1.33-8h16z" fill="#ab2f10"/></g></svg>